<?xml version="1.0" standalone="no"?>
<!DOCTYPE svg PUBLIC "-//W3C//DTD SVG 20010904//EN"
 "http://www.w3.org/TR/2001/REC-SVG-20010904/DTD/svg10.dtd">
<svg version="1.0" xmlns="http://www.w3.org/2000/svg"
 width="512.000000pt" height="512.000000pt" viewBox="0 0 512.000000 512.000000"
 preserveAspectRatio="xMidYMid meet">

<g transform="translate(0.000000,512.000000) scale(0.100000,-0.100000)"
fill="#000000" stroke="none">
<path d="M728 4333 c-28 -32 -128 -201 -128 -215 0 -8 8 -22 18 -31 16 -15 54
-17 333 -17 232 0 318 3 327 12 24 24 11 64 -51 163 l-62 100 -211 3 c-191 2
-212 1 -226 -15z"/>
<path d="M1396 4097 c-16 -85 -84 -137 -181 -137 l-57 0 284 -230 283 -229
230 -1 c193 0 227 2 215 13 -23 22 -744 602 -756 610 -8 4 -14 -5 -18 -26z"/>
<path d="M188 3380 c-44 -13 -87 -49 -108 -90 -11 -22 -20 -44 -20 -50 0 -7
379 -10 1210 -10 l1210 0 0 80 0 80 -1132 -1 c-623 0 -1145 -4 -1160 -9z"/>
<path d="M2869 3370 c-35 -18 -69 -58 -69 -80 0 -7 97 -10 290 -10 315 0 314
0 264 54 -47 50 -77 56 -271 56 -155 -1 -183 -3 -214 -20z"/>
<path d="M2590 3065 l0 -115 565 0 c603 0 619 1 644 48 14 27 14 107 0 134
-25 47 -41 48 -644 48 l-565 0 0 -115z"/>
<path d="M50 2938 c0 -101 5 -212 11 -248 12 -78 47 -159 94 -216 49 -60 762
-661 843 -710 92 -56 195 -92 305 -105 56 -6 253 -9 507 -7 l415 3 67 33 c80
39 139 102 168 178 19 53 20 76 20 654 l0 600 -1215 0 -1215 0 0 -182z m857
-270 c101 -101 186 -193 190 -206 7 -28 -21 -62 -51 -62 -15 0 -84 63 -214
193 -106 106 -192 198 -192 203 0 23 33 54 57 54 21 0 66 -39 210 -182z m435
-6 c108 -108 188 -196 188 -207 0 -27 -30 -55 -59 -55 -21 -1 -64 38 -213 192
-104 105 -188 197 -188 203 0 24 32 55 58 55 22 0 64 -37 214 -188z m416 16
c95 -95 180 -186 188 -201 14 -25 14 -31 -1 -53 -33 -51 -55 -37 -246 152 -97
97 -182 187 -189 200 -20 37 0 74 42 74 28 0 53 -21 206 -172z m487 -473 c68
-42 95 -96 95 -190 0 -94 -27 -148 -95 -190 l-48 -30 -172 0 -172 0 -48 30
c-68 42 -95 96 -95 188 0 114 42 178 139 214 26 9 81 12 192 11 154 -3 156 -3
204 -33z"/>
<path d="M1863 2118 c-26 -13 -53 -65 -53 -103 0 -40 27 -91 56 -104 15 -6 80
-11 159 -11 79 0 144 5 159 11 29 13 56 64 56 104 0 40 -27 91 -56 104 -32 14
-291 14 -321 -1z"/>
<path d="M2590 2385 l0 -465 88 0 c61 0 102 6 137 19 130 49 288 51 424 5 59
-20 90 -24 155 -22 l81 3 -1 41 c-1 79 -60 123 -166 125 -45 0 -56 3 -38 8 83
26 139 73 183 155 21 39 22 55 25 319 l3 277 -445 0 -446 0 0 -465z m615 343
c14 -13 19 -217 6 -250 -13 -36 -54 -47 -81 -23 -18 16 -20 32 -20 141 0 116
1 124 22 138 22 16 53 13 73 -6z"/>
<path d="M2900 1854 c-241 -63 -413 -282 -414 -529 -1 -155 54 -287 163 -395
110 -109 233 -160 386 -160 146 0 275 51 377 147 181 174 227 427 116 653 -65
135 -226 258 -376 289 -72 15 -185 13 -252 -5z m282 -134 c171 -65 278 -219
278 -399 0 -124 -45 -226 -138 -313 -244 -228 -648 -87 -705 246 -37 217 116
440 333 486 63 13 170 4 232 -20z"/>
<path d="M2959 1627 c-187 -53 -285 -243 -218 -424 26 -68 92 -138 164 -173
75 -37 189 -35 267 3 70 34 140 110 162 174 9 26 16 79 16 118 0 166 -122 294
-295 310 -27 3 -71 -1 -96 -8z"/>
<path d="M3515 1767 c65 -72 110 -148 143 -239 24 -65 27 -88 27 -205 l0 -133
132 0 132 0 109 -142 c118 -153 145 -182 207 -220 88 -54 116 -58 420 -58 271
0 283 1 309 21 56 44 72 118 38 174 -13 21 -109 85 -325 218 -168 103 -327
198 -354 210 -43 20 -67 22 -229 25 l-181 4 -21 42 c-11 24 -70 101 -130 172
-124 145 -160 170 -263 181 l-64 6 50 -56z"/>
<path d="M2531 1765 c-34 -63 -120 -141 -198 -178 l-68 -32 -460 -5 c-253 -3
-453 -7 -445 -8 41 -6 147 -67 195 -113 62 -58 95 -110 120 -187 l17 -52 347
0 346 0 0 128 c1 113 4 136 29 207 32 94 78 172 139 238 38 40 41 47 23 47
-15 0 -28 -14 -45 -45z"/>
<path d="M4568 1766 c-100 -29 -199 -109 -244 -198 l-24 -47 42 -12 c63 -17
117 -46 385 -211 134 -82 249 -148 256 -145 7 3 26 31 42 63 28 55 30 67 30
169 0 101 -2 115 -29 170 -64 130 -191 214 -334 221 -47 2 -96 -2 -124 -10z"/>
<path d="M781 1663 c-102 -128 -159 -262 -176 -415 l-6 -58 105 0 105 0 15 53
c44 150 201 284 361 305 53 8 57 9 30 16 -120 29 -309 118 -346 162 -6 8 -15
14 -19 14 -4 0 -35 -35 -69 -77z"/>
<path d="M1161 1435 c-70 -20 -108 -44 -161 -101 -66 -72 -85 -123 -85 -229 0
-110 23 -164 102 -242 64 -63 137 -93 227 -93 139 0 244 63 306 185 32 62 35
75 35 154 0 74 -4 94 -28 143 -72 147 -243 226 -396 183z"/>
</g>
</svg>
