<?xml version="1.0" encoding="UTF-8" standalone="no"?>
<!DOCTYPE svg PUBLIC "-//W3C//DTD SVG 1.1//EN" "http://www.w3.org/Graphics/SVG/1.1/DTD/svg11.dtd">
<svg xmlns="http://www.w3.org/2000/svg" version="1.1" viewBox="0.00 0.00 741.00 192.00">
<path fill="#ffffff" d="
  M 196.66 192.00
  L 194.77 192.00
  Q 194.02 191.68 193.76 192.00
  L 12.62 192.00
  Q 11.86 191.60 11.74 192.00
  L 11.38 192.00
  Q 10.55 191.67 10.35 192.00
  L 8.79 192.00
  Q 4.08 182.29 8.24 173.98
  C 14.18 162.09 28.01 162.45 39.71 162.79
  A 0.70 0.70 0.0 0 0 40.42 162.20
  C 44.83 135.49 74.42 120.95 96.57 139.39
  A 0.09 0.09 0.0 0 0 96.71 139.33
  L 98.31 121.89
  A 1.88 1.84 34.2 0 0 98.11 120.90
  L 89.28 104.05
  A 1.75 1.75 0.0 0 0 87.69 103.10
  C 71.50 103.31 54.16 97.29 43.64 84.87
  C 33.68 73.11 32.79 54.58 36.08 39.93
  A 0.49 0.49 0.0 0 1 36.53 39.55
  C 50.52 38.72 66.22 40.85 77.68 48.42
  C 90.43 56.83 96.17 72.90 97.06 87.86
  A 0.15 0.15 0.0 0 1 96.79 87.96
  C 83.83 71.92 67.91 61.62 48.53 52.96
  A 0.13 0.12 -61.1 0 0 48.37 53.01
  L 48.37 53.02
  A 0.15 0.14 -60.6 0 0 48.42 53.21
  C 69.55 66.66 88.47 85.23 101.11 107.17
  A 0.38 0.38 0.0 0 0 101.81 107.07
  Q 105.55 91.42 114.73 77.73
  C 130.33 54.47 151.49 35.88 175.88 22.84
  A 0.16 0.16 0.0 0 0 175.76 22.55
  C 148.76 30.45 124.20 46.89 107.96 69.92
  A 0.22 0.21 64.5 0 1 107.57 69.78
  C 108.45 55.35 112.02 42.65 121.15 31.34
  Q 136.94 11.81 161.89 7.89
  Q 175.31 5.78 189.01 8.03
  A 0.82 0.81 -89.1 0 1 189.68 8.73
  C 192.50 31.07 188.11 56.16 170.58 72.12
  Q 151.85 89.18 126.10 91.56
  Q 122.83 91.86 119.27 92.17
  A 0.91 0.90 9.9 0 0 118.54 92.68
  Q 108.64 114.18 111.48 137.26
  A 0.79 0.78 -86.8 0 0 112.06 137.92
  Q 128.31 142.24 131.29 158.57
  C 131.50 159.72 131.30 161.06 131.49 162.12
  A 0.74 0.74 0.0 0 0 132.22 162.74
  Q 151.70 162.76 156.75 162.69
  Q 172.82 162.47 185.81 173.21
  Q 195.33 181.09 196.66 192.00
  Z"
/>
<path fill="#ffffff" d="
  M 263.60 54.66
  C 268.12 57.72 266.65 65.44 260.72 65.80
  Q 259.38 65.87 255.65 63.95
  Q 246.87 59.43 236.25 60.24
  C 230.00 60.71 223.40 63.30 221.98 69.69
  C 220.42 76.70 224.67 80.32 230.94 82.06
  C 245.22 86.05 270.75 86.42 269.32 108.28
  C 267.50 136.24 226.61 135.38 209.83 125.12
  Q 207.37 123.61 206.47 121.73
  C 204.71 118.05 206.06 113.26 210.30 112.31
  Q 211.85 111.96 215.29 113.83
  Q 226.54 119.94 240.28 119.00
  C 246.54 118.57 253.38 116.50 254.44 109.77
  C 255.57 102.57 249.78 99.71 243.82 98.47
  Q 239.56 97.59 225.01 94.29
  Q 220.59 93.29 215.88 90.26
  C 209.73 86.29 207.09 80.29 206.99 73.00
  C 206.85 62.06 213.85 53.84 223.83 50.11
  C 236.19 45.51 252.44 47.10 263.60 54.66
  Z"
/>
<path fill="#ffffff" d="
  M 560.43 108.08
  C 557.71 136.66 518.13 135.39 500.28 124.79
  A 0.44 0.44 0.0 0 0 499.62 125.13
  C 499.34 128.07 498.17 130.02 495.20 130.68
  C 484.54 133.08 472.24 131.30 467.41 120.51
  Q 465.31 115.82 465.47 103.62
  Q 465.66 89.21 465.54 85.18
  A 0.40 0.40 0.0 0 0 465.16 84.80
  L 456.76 84.38
  A 1.90 1.87 -53.0 0 0 456.02 84.49
  Q 455.18 84.79 448.28 85.76
  Q 441.24 86.75 437.80 92.53
  Q 436.00 95.56 436.27 105.21
  Q 436.30 106.17 436.34 120.25
  Q 436.36 126.76 435.18 128.56
  C 432.68 132.34 425.01 132.62 422.50 128.21
  Q 421.47 126.41 421.53 122.34
  Q 421.61 116.64 421.52 84.13
  Q 421.50 77.61 422.43 75.97
  Q 424.40 72.50 429.74 73.02
  C 435.56 73.59 435.53 77.88 435.68 82.52
  A 0.30 0.30 0.0 0 0 436.24 82.66
  Q 441.84 72.55 455.25 72.76
  A 0.95 0.82 -27.4 0 1 455.67 72.86
  L 457.42 73.73
  A 0.69 0.65 -30.5 0 0 457.72 73.80
  L 465.09 73.80
  A 0.46 0.46 0.0 0 0 465.55 73.34
  C 465.54 68.38 464.75 60.94 466.88 58.41
  C 469.51 55.28 475.77 55.00 478.52 58.24
  C 480.86 60.99 480.09 69.68 479.95 73.22
  A 0.49 0.49 0.0 0 0 480.42 73.72
  Q 485.93 73.90 491.26 73.73
  Q 497.33 73.53 497.93 78.42
  C 498.44 82.56 496.05 84.73 492.00 84.68
  Q 486.34 84.62 480.60 84.70
  A 0.60 0.59 -90.0 0 0 480.01 85.30
  Q 480.08 98.98 480.02 106.50
  Q 479.97 112.97 481.33 115.32
  C 484.35 120.56 490.44 120.02 495.96 119.03
  A 0.77 0.77 0.0 0 0 496.57 118.42
  C 497.14 115.39 498.31 112.72 501.56 112.27
  Q 502.99 112.07 507.02 114.19
  Q 517.99 119.95 531.27 119.00
  C 537.57 118.55 544.36 116.53 545.43 109.76
  C 546.61 102.33 540.48 99.67 534.43 98.36
  C 519.52 95.12 502.44 93.71 498.88 79.44
  Q 495.65 66.48 503.97 57.25
  C 515.19 44.80 538.22 45.47 551.86 52.89
  Q 555.61 54.94 556.62 57.07
  C 558.38 60.77 556.47 65.28 551.94 65.79
  Q 550.53 65.94 546.94 64.09
  Q 536.35 58.62 523.92 60.68
  C 517.84 61.68 512.52 65.91 512.70 72.55
  C 512.87 79.23 518.92 81.65 524.51 82.74
  Q 532.90 84.38 541.11 86.39
  C 551.07 88.82 560.09 94.67 560.09 106.07
  A 0.27 0.05 55.5 0 0 560.17 106.25
  Q 560.19 106.27 560.20 106.29
  A 0.02 0.02 0.0 0 0 560.24 106.29
  Q 560.43 99.14 560.84 96.58
  C 563.30 81.21 575.78 71.50 591.25 72.76
  Q 606.58 74.01 612.42 87.52
  C 614.27 91.80 614.69 96.22 614.88 100.88
  C 615.04 104.88 611.71 105.45 608.24 105.44
  Q 588.16 105.42 574.79 105.43
  A 0.41 0.41 0.0 0 0 574.38 105.89
  C 576.41 123.12 594.96 123.32 606.71 116.76
  C 609.38 115.26 613.20 116.22 614.04 119.52
  C 615.28 124.44 610.48 127.20 606.33 128.81
  Q 596.14 132.76 585.59 131.24
  Q 564.63 128.20 560.90 108.06
  A 0.24 0.24 0.0 0 0 560.43 108.08
  Z
  M 575.07 97.18
  L 602.61 97.04
  A 0.27 0.27 0.0 0 0 602.88 96.77
  L 602.87 96.42
  A 14.00 13.51 89.7 0 0 589.29 82.49
  L 588.23 82.49
  A 14.00 13.51 89.7 0 0 574.80 96.56
  L 574.80 96.91
  A 0.27 0.27 0.0 0 0 575.07 97.18
  Z"
/>
<path fill="#ffffff" d="
  M 712.65 122.52
  C 712.23 123.06 711.69 124.16 711.06 124.84
  Q 705.71 130.52 698.45 131.37
  C 681.33 133.37 671.32 121.64 670.10 105.74
  Q 669.99 104.18 670.17 98.68
  C 670.70 83.38 681.00 71.49 697.12 72.75
  C 703.56 73.25 709.23 76.40 712.77 81.74
  A 0.19 0.18 28.4 0 0 713.11 81.64
  Q 713.10 73.08 713.04 58.21
  C 713.01 52.11 713.82 47.44 720.76 47.88
  Q 727.60 48.33 727.58 55.51
  Q 727.53 72.23 727.57 124.00
  Q 727.57 126.27 726.62 128.15
  C 724.82 131.72 719.48 132.12 716.54 130.60
  Q 712.96 128.75 713.22 122.72
  A 0.32 0.31 -25.3 0 0 712.65 122.52
  Z
  M 684.52 102.09
  C 684.51 111.20 688.02 120.59 698.87 120.61
  C 709.72 120.63 713.27 111.25 713.28 102.14
  C 713.30 93.03 709.79 83.65 698.94 83.63
  C 688.08 83.61 684.54 92.98 684.52 102.09
  Z"
/>
<path fill="#ffffff" d="
  M 287.31 81.73
  Q 293.62 72.56 304.64 72.64
  Q 316.48 72.72 320.85 82.78
  A 0.42 0.41 50.4 0 0 321.57 82.85
  Q 322.06 82.17 323.04 80.81
  C 328.20 73.74 337.20 71.46 345.49 73.17
  C 356.66 75.49 359.35 85.95 359.33 95.75
  Q 359.29 117.43 359.34 119.44
  Q 359.54 126.54 358.27 128.37
  C 354.69 133.55 345.01 132.29 344.89 124.73
  Q 344.63 108.08 344.78 94.01
  Q 344.79 93.15 344.06 90.21
  Q 342.70 84.76 337.34 84.16
  C 328.63 83.19 323.47 89.13 323.34 97.28
  Q 323.15 109.79 323.26 123.50
  C 323.29 126.67 322.29 129.81 319.08 130.89
  C 313.70 132.70 308.69 130.05 308.70 123.99
  Q 308.72 100.70 308.64 93.96
  C 308.60 89.86 306.77 85.47 302.67 84.43
  C 294.02 82.21 287.56 88.56 287.37 96.89
  Q 287.27 101.39 287.28 124.99
  C 287.28 130.47 281.51 132.43 277.21 131.02
  C 273.22 129.72 272.74 126.32 272.75 122.30
  Q 272.77 95.57 272.74 80.75
  Q 272.72 73.09 279.76 72.89
  Q 284.48 72.75 286.52 77.04
  Q 286.73 77.47 286.88 81.61
  A 0.24 0.23 -29.1 0 0 287.31 81.73
  Z"
/>
<path fill="#ffffff" d="
  M 400.83 122.50
  C 400.59 122.67 399.98 124.18 399.58 124.72
  Q 394.40 131.65 384.72 131.63
  C 373.44 131.60 363.09 124.67 363.64 112.46
  C 364.16 100.98 374.43 98.49 384.01 97.49
  Q 391.39 96.73 400.43 96.88
  A 0.64 0.63 -88.1 0 0 401.07 96.27
  C 401.33 89.75 400.01 84.44 392.75 83.71
  Q 384.69 82.91 376.56 86.29
  Q 372.49 87.99 371.16 87.78
  C 366.92 87.12 366.20 81.88 368.25 78.81
  Q 369.24 77.33 372.82 76.02
  C 385.82 71.25 406.75 69.46 412.98 84.57
  Q 415.07 89.64 414.89 102.18
  Q 414.87 103.28 414.79 124.25
  C 414.74 134.64 400.14 133.67 401.44 122.86
  A 0.39 0.39 0.0 0 0 400.83 122.50
  Z
  M 400.41 105.30
  C 395.78 105.03 382.74 104.61 379.17 108.83
  C 376.52 111.95 377.80 117.43 381.04 119.71
  C 386.81 123.78 395.75 121.43 399.17 115.15
  Q 401.57 110.74 401.05 105.91
  A 0.69 0.68 -1.0 0 0 400.41 105.30
  Z"
/>
<path fill="#ffffff" d="
  M 629.16 106.16
  Q 630.63 118.44 642.47 120.32
  C 647.58 121.14 654.46 120.37 659.51 117.72
  C 661.90 116.46 665.23 115.01 667.43 117.25
  C 670.85 120.74 668.09 125.66 664.23 127.43
  C 640.76 138.20 612.38 128.20 615.41 98.13
  C 616.75 84.87 625.70 75.03 639.06 72.98
  Q 647.93 71.62 655.76 75.25
  C 665.87 79.96 669.80 90.80 669.66 101.95
  A 1.84 1.81 61.8 0 1 669.37 102.94
  Q 667.74 105.46 664.51 105.46
  Q 641.95 105.41 629.80 105.43
  A 0.66 0.65 86.4 0 0 629.16 106.16
  Z
  M 629.76 97.17
  L 657.44 97.07
  A 0.21 0.21 0.0 0 0 657.64 96.86
  L 657.64 96.43
  A 14.00 13.60 89.8 0 0 643.99 82.48
  L 643.09 82.48
  A 14.00 13.60 89.8 0 0 629.54 96.53
  L 629.54 96.96
  A 0.21 0.21 0.0 0 0 629.76 97.17
  Z"
/>
<rect fill="#fdfdfd" x="-1.20" y="-3.33" transform="translate(422.01,137.93) rotate(31.7)" width="2.40" height="6.66" rx="1.09"/>
<path fill="#fdfdfd" d="
  M 298.73 137.04
  Q 299.16 137.27 299.60 137.48
  A 1.19 1.18 43.2 0 0 300.68 137.45
  Q 301.28 137.13 301.65 136.23
  A 0.84 0.75 -34.6 0 1 303.21 136.42
  Q 302.95 139.38 300.39 139.76
  A 1.63 1.59 53.9 0 1 299.36 139.59
  Q 298.48 139.11 297.63 138.67
  Q 297.20 138.43 296.76 138.22
  A 1.19 1.18 43.2 0 0 295.68 138.25
  Q 295.08 138.57 294.71 139.47
  A 0.84 0.75 -34.6 0 1 293.15 139.28
  Q 293.41 136.32 295.97 135.94
  A 1.63 1.59 53.9 0 1 297.00 136.11
  Q 297.88 136.59 298.73 137.04
  Z"
/>
<rect fill="#ffffff" x="-1.95" y="-1.68" transform="translate(619.87,138.04) rotate(-0.2)" width="3.90" height="3.36" rx="1.54"/>
<path fill="#fdfdfd" d="
  M 219.28 147.81
  L 216.41 147.81
  A 0.82 0.82 0.0 0 1 215.59 146.99
  L 215.59 146.54
  A 1.16 1.16 0.0 0 1 216.75 145.38
  L 221.66 145.38
  A 1.03 1.02 0.0 0 1 222.69 146.40
  L 222.69 153.45
  A 1.39 1.38 -9.9 0 1 221.77 154.75
  C 218.65 155.89 214.27 156.22 211.24 154.76
  C 204.94 151.71 204.69 141.01 211.01 137.63
  Q 215.60 135.18 221.51 137.76
  A 1.65 1.65 0.0 0 1 222.45 139.68
  L 222.41 139.85
  A 1.16 1.16 0.0 0 1 220.84 140.63
  C 214.12 137.82 209.45 140.13 210.17 147.60
  C 210.66 152.71 215.10 153.34 219.34 152.43
  A 0.69 0.69 0.0 0 0 219.88 151.76
  L 219.88 148.41
  A 0.60 0.60 0.0 0 0 219.28 147.81
  Z"
/>
<path fill="#fdfdfd" d="
  M 359.31 136.47
  Q 360.50 136.47 361.00 137.51
  Q 363.43 142.54 368.42 153.80
  A 1.29 1.28 -18.7 0 1 367.54 155.56
  L 367.39 155.60
  A 1.64 1.63 70.0 0 1 365.45 154.69
  L 364.15 151.75
  A 0.98 0.97 78.7 0 0 363.28 151.17
  Q 363.20 151.16 359.31 151.16
  Q 355.42 151.16 355.34 151.17
  A 0.98 0.97 -78.7 0 0 354.48 151.75
  L 353.18 154.69
  A 1.64 1.63 -70.0 0 1 351.24 155.60
  L 351.09 155.56
  A 1.29 1.28 18.6 0 1 350.21 153.80
  Q 355.19 142.54 357.62 137.51
  Q 358.12 136.47 359.31 136.47
  Z
  M 359.31 148.44
  Q 361.49 148.42 362.08 148.35
  A 0.42 0.42 0.0 0 0 362.41 147.76
  L 359.35 140.71
  A 0.06 0.05 71.1 0 0 359.29 140.67
  Q 359.27 140.67 359.26 140.67
  Q 359.24 140.67 359.23 140.67
  A 0.06 0.05 -71.9 0 0 359.17 140.71
  L 356.20 147.80
  A 0.42 0.42 0.0 0 0 356.54 148.39
  Q 357.13 148.45 359.31 148.44
  Z"
/>
<path fill="#fdfdfd" d="
  M 480.30 153.02
  A 1.03 1.02 1.4 0 1 481.44 154.21
  L 481.41 154.34
  A 1.70 1.69 3.4 0 1 479.82 155.74
  Q 474.79 155.98 474.65 151.33
  Q 474.56 148.21 474.61 138.15
  A 1.61 1.61 0.0 0 1 476.22 136.55
  L 476.28 136.55
  A 1.64 1.63 0.2 0 1 477.92 138.19
  Q 477.90 144.34 477.93 150.48
  Q 477.94 153.31 480.30 153.02
  Z"
/>
<rect fill="#ffffff" x="526.66" y="136.50" width="3.44" height="19.20" rx="1.66"/>
<path fill="#ffffff" d="
  M 608.30 153.02
  A 1.03 1.02 1.4 0 1 609.44 154.21
  L 609.41 154.34
  A 1.70 1.69 3.4 0 1 607.82 155.74
  Q 602.79 155.98 602.65 151.33
  Q 602.56 148.21 602.61 138.15
  A 1.61 1.61 0.0 0 1 604.22 136.55
  L 604.28 136.55
  A 1.64 1.63 0.2 0 1 605.92 138.19
  Q 605.90 144.34 605.93 150.48
  Q 605.94 153.31 608.30 153.02
  Z"
/>
<path fill="#fdfdfd" d="
  M 279.91 142.49
  L 282.12 142.49
  A 1.23 1.23 0.0 0 1 283.35 143.72
  L 283.35 144.10
  A 0.79 0.79 0.0 0 1 282.56 144.89
  L 279.84 144.89
  A 0.60 0.59 -90.0 0 0 279.25 145.49
  L 279.25 151.07
  A 1.71 1.67 27.4 0 0 279.58 152.07
  Q 280.62 153.47 282.49 152.87
  A 0.99 0.99 0.0 0 1 283.77 153.81
  L 283.77 154.11
  A 1.49 1.49 0.0 0 1 282.50 155.58
  C 274.84 156.74 275.86 150.53 275.92 145.47
  A 0.59 0.59 0.0 0 0 275.37 144.87
  L 274.11 144.77
  A 1.12 1.12 0.0 0 1 274.19 142.54
  L 275.40 142.54
  A 0.61 0.61 0.0 0 0 276.00 141.82
  Q 275.63 139.69 276.27 138.96
  A 1.71 1.66 -28.4 0 1 279.23 139.79
  Q 279.31 140.46 279.20 141.70
  A 0.72 0.71 -87.1 0 0 279.91 142.49
  Z"
/>
<path fill="#fdfdfd" d="
  M 567.94 141.69
  A 0.72 0.71 -87.1 0 0 568.65 142.48
  L 570.86 142.48
  A 1.23 1.23 0.0 0 1 572.09 143.71
  L 572.09 144.09
  A 0.79 0.79 0.0 0 1 571.30 144.88
  L 568.58 144.88
  A 0.60 0.59 90.0 0 0 567.99 145.49
  L 567.99 151.07
  A 1.71 1.67 27.4 0 0 568.32 152.07
  Q 569.36 153.47 571.24 152.87
  A 0.99 0.99 0.0 0 1 572.52 153.81
  L 572.52 154.11
  A 1.49 1.49 0.0 0 1 571.25 155.58
  C 563.58 156.74 564.60 150.53 564.66 145.47
  A 0.59 0.59 0.0 0 0 564.11 144.87
  L 562.85 144.77
  A 1.12 1.12 0.0 0 1 562.93 142.53
  L 564.14 142.53
  A 0.61 0.61 0.0 0 0 564.74 141.81
  Q 564.37 139.68 565.01 138.95
  A 1.71 1.66 -28.5 0 1 567.97 139.78
  Q 568.05 140.45 567.94 141.69
  Z"
/>
<path fill="#fdfdfd" d="
  M 703.94 141.69
  A 0.72 0.71 -87.1 0 0 704.65 142.48
  L 706.86 142.48
  A 1.23 1.23 0.0 0 1 708.09 143.71
  L 708.09 144.09
  A 0.79 0.79 0.0 0 1 707.30 144.88
  L 704.58 144.89
  A 0.60 0.59 90.0 0 0 703.99 145.49
  L 703.99 151.07
  A 1.71 1.67 27.4 0 0 704.32 152.07
  Q 705.36 153.47 707.23 152.87
  A 0.99 0.99 0.0 0 1 708.52 153.81
  L 708.52 154.11
  A 1.49 1.49 0.0 0 1 707.25 155.58
  C 699.58 156.74 700.60 150.53 700.66 145.47
  A 0.59 0.59 0.0 0 0 700.11 144.87
  L 698.85 144.77
  A 1.12 1.12 0.0 0 1 698.93 142.54
  L 700.14 142.53
  A 0.61 0.61 0.0 0 0 700.74 141.81
  Q 700.37 139.68 701.01 138.95
  A 1.71 1.66 -28.5 0 1 703.97 139.78
  Q 704.05 140.45 703.94 141.69
  Z"
/>
<path fill="#fdfdfd" d="
  M 235.98 150.41
  C 237.13 153.88 240.56 153.74 243.46 152.34
  Q 243.71 152.22 244.07 152.22
  Q 244.43 152.23 244.67 152.41
  A 1.17 1.01 44.5 0 1 244.81 154.16
  Q 242.97 155.50 240.98 155.68
  C 229.20 156.74 230.73 140.10 241.18 142.49
  A 4.66 4.65 -5.3 0 1 244.43 145.18
  L 245.38 147.36
  A 1.68 1.68 0.0 0 1 243.84 149.71
  L 236.49 149.71
  A 0.54 0.53 -9.1 0 0 235.98 150.41
  Z
  M 236.28 147.84
  L 242.32 147.78
  A 0.18 0.18 0.0 0 0 242.50 147.60
  L 242.50 147.52
  A 3.13 3.08 -0.5 0 0 239.35 144.47
  L 239.21 144.47
  A 3.13 3.08 -0.5 0 0 236.10 147.58
  L 236.10 147.66
  A 0.18 0.18 0.0 0 0 236.28 147.84
  Z"
/>
<path fill="#fdfdfd" d="
  M 254.55 153.25
  L 254.64 152.91
  A 0.62 0.61 13.2 0 1 255.38 152.46
  L 259.52 153.47
  A 2.48 2.47 24.4 0 0 262.13 152.50
  L 262.23 152.35
  A 1.15 1.15 0.0 0 0 261.54 150.63
  C 259.42 150.09 252.76 149.43 255.05 144.86
  C 256.68 141.61 261.33 141.87 264.27 143.12
  A 1.27 1.26 -70.9 0 1 264.99 144.62
  L 264.98 144.66
  A 1.03 1.03 0.0 0 1 263.66 145.37
  C 261.80 144.74 258.94 143.69 257.84 145.72
  A 1.17 1.17 0.0 0 0 258.62 147.42
  Q 262.52 148.29 263.27 148.56
  A 3.27 2.82 10.8 0 1 265.43 151.28
  C 265.55 156.55 258.98 156.13 255.43 154.88
  A 1.39 1.39 0.0 0 1 254.55 153.25
  Z"
/>
<path fill="#fdfdfd" d="
  M 300.81 154.68
  A 0.58 0.57 60.5 0 0 299.92 154.43
  Q 296.85 156.84 293.97 154.98
  Q 291.99 153.69 291.88 151.85
  C 291.64 147.90 296.74 147.63 299.43 147.84
  A 1.12 1.11 77.6 0 0 300.49 146.18
  C 299.01 143.56 296.14 144.94 294.00 145.59
  A 0.97 0.97 0.0 0 1 292.75 144.71
  L 292.75 144.66
  A 1.60 1.59 -12.2 0 1 293.77 143.09
  C 298.11 141.39 303.59 141.63 303.66 147.71
  Q 303.71 152.70 303.62 154.31
  A 1.50 1.49 25.7 0 1 301.02 155.22
  Q 301.01 155.21 300.81 154.68
  Z
  M 299.94 149.63
  Q 297.37 149.62 296.15 150.06
  A 1.55 1.50 -24.2 0 0 295.30 152.20
  C 296.86 155.07 300.44 152.87 300.52 150.24
  A 0.59 0.59 0.0 0 0 299.94 149.63
  Z"
/>
<path fill="#fdfdfd" d="
  M 326.7679 149.5994
  A 5.99 5.99 0.0 0 1 320.8516 155.6622
  L 319.6517 155.6768
  A 5.99 5.99 0.0 0 1 313.5889 149.7605
  L 313.5721 148.3806
  A 5.99 5.99 0.0 0 1 319.4884 142.3178
  L 320.6883 142.3032
  A 5.99 5.99 0.0 0 1 326.7511 148.2195
  L 326.7679 149.5994
  Z
  M 320.2256 144.6202
  A 4.35 3.37 -89.4 0 0 316.8102 148.9347
  A 4.35 3.37 -89.4 0 0 320.1344 153.3198
  A 4.35 3.37 -89.4 0 0 323.5498 149.0053
  A 4.35 3.37 -89.4 0 0 320.2256 144.6202
  Z"
/>
<path fill="#fdfdfd" d="
  M 386.88 153.49
  C 378.91 160.14 373.48 146.52 379.99 143.04
  Q 383.57 141.13 386.52 143.61
  A 0.56 0.56 0.0 0 0 387.43 143.32
  C 387.84 141.66 390.45 142.01 390.47 143.81
  Q 390.60 151.59 390.37 155.41
  C 390.00 161.40 382.65 161.33 378.63 159.38
  A 1.19 1.19 0.0 0 1 378.05 157.87
  L 378.08 157.81
  A 1.18 1.18 0.0 0 1 379.54 157.13
  C 382.98 158.26 387.68 159.23 387.28 153.66
  A 0.24 0.24 0.0 0 0 386.88 153.49
  Z
  M 383.8390 144.6501
  A 4.02 3.41 -90.3 0 0 380.4500 148.6879
  A 4.02 3.41 -90.3 0 0 383.8810 152.6899
  A 4.02 3.41 -90.3 0 0 387.2700 148.6521
  A 4.02 3.41 -90.3 0 0 383.8390 144.6501
  Z"
/>
<path fill="#fdfdfd" d="
  M 404.96 143.71
  C 406.06 143.00 407.14 142.12 408.56 142.24
  A 1.37 1.34 -54.0 0 1 408.94 144.84
  Q 408.30 145.13 406.88 145.32
  A 2.74 2.73 86.4 0 0 404.52 148.01
  L 404.47 154.17
  A 1.51 1.51 0.0 0 1 402.91 155.67
  L 402.76 155.66
  A 1.65 1.65 0.0 0 1 401.11 154.02
  Q 401.09 148.43 401.15 143.68
  A 1.59 1.47 4.8 0 1 402.96 142.26
  Q 403.84 142.38 404.13 143.41
  A 0.55 0.55 0.0 0 0 404.96 143.71
  Z"
/>
<rect fill="#ffffff" x="-1.69" y="-6.66" transform="translate(420.39,148.99) rotate(0.2)" width="3.38" height="13.32" rx="1.62"/>
<path fill="#fdfdfd" d="
  M 435.43 148.96
  C 435.41 152.56 438.04 154.20 441.40 152.51
  A 1.20 1.20 0.0 0 1 443.04 153.11
  L 443.05 153.16
  A 1.27 1.27 0.0 0 1 442.37 154.83
  C 437.11 157.00 432.03 154.91 432.07 148.94
  C 432.10 142.97 437.21 140.94 442.44 143.17
  A 1.27 1.27 0.0 0 1 443.10 144.85
  L 443.09 144.90
  A 1.20 1.20 0.0 0 1 441.44 145.48
  C 438.10 143.76 435.46 145.36 435.43 148.96
  Z"
/>
<path fill="#fdfdfd" d="
  M 464.64 149.68
  A 5.99 5.99 0.0 0 1 458.65 155.67
  L 457.45 155.67
  A 5.99 5.99 0.0 0 1 451.46 149.68
  L 451.46 148.30
  A 5.99 5.99 0.0 0 1 457.45 142.31
  L 458.65 142.31
  A 5.99 5.99 0.0 0 1 464.64 148.30
  L 464.64 149.68
  Z
  M 458.1283 144.6205
  A 4.35 3.38 -89.1 0 0 454.6804 148.9169
  A 4.35 3.38 -89.1 0 0 457.9917 153.3195
  A 4.35 3.38 -89.1 0 0 461.4396 149.0231
  A 4.35 3.38 -89.1 0 0 458.1283 144.6205
  Z"
/>
<path fill="#fdfdfd" d="
  M 497.81 154.43
  Q 494.74 156.84 491.86 154.98
  Q 489.88 153.69 489.77 151.85
  C 489.53 147.90 494.63 147.63 497.32 147.84
  A 1.12 1.11 77.6 0 0 498.38 146.18
  C 496.90 143.56 494.03 144.94 491.89 145.59
  A 0.97 0.97 0.0 0 1 490.64 144.71
  L 490.64 144.66
  A 1.60 1.59 -12.2 0 1 491.66 143.09
  C 496.00 141.39 501.48 141.62 501.55 147.71
  Q 501.60 152.70 501.52 154.31
  A 1.50 1.49 25.7 0 1 498.91 155.22
  Q 498.90 155.21 498.70 154.68
  A 0.58 0.57 60.5 0 0 497.81 154.43
  Z
  M 497.85 149.64
  Q 495.26 149.62 494.04 150.07
  A 1.56 1.50 -24.2 0 0 493.18 152.22
  C 494.75 155.10 498.35 152.89 498.43 150.25
  A 0.59 0.59 0.0 0 0 497.85 149.64
  Z"
/>
<path fill="#fdfdfd" d="
  M 544.21 143.52
  A 0.46 0.45 60.3 0 0 544.93 143.72
  C 548.34 140.92 552.60 141.95 553.22 146.32
  Q 553.52 148.45 553.26 154.12
  A 1.60 1.60 0.0 0 1 551.63 155.65
  L 551.52 155.65
  A 1.54 1.54 0.0 0 1 550.00 154.13
  L 549.94 146.93
  A 2.18 2.18 0.0 0 0 547.28 144.83
  L 547.01 144.87
  A 3.06 3.06 0.0 0 0 544.44 147.90
  L 544.45 154.02
  A 1.64 1.64 0.0 0 1 542.80 155.66
  L 542.69 155.66
  A 1.52 1.52 0.0 0 1 541.12 154.14
  L 541.13 143.71
  A 1.34 1.34 0.0 0 1 541.83 142.53
  Q 543.53 141.60 544.21 143.52
  Z"
/>
<path fill="#fdfdfd" d="
  M 584.11 149.72
  A 0.54 0.53 -9.2 0 0 583.60 150.42
  C 584.76 153.88 588.19 153.73 591.08 152.33
  Q 591.33 152.21 591.69 152.21
  Q 592.05 152.22 592.29 152.39
  A 1.17 1.01 44.4 0 1 592.43 154.14
  Q 590.60 155.49 588.61 155.67
  C 576.85 156.76 578.33 140.13 588.78 142.49
  A 4.65 4.65 0.0 0 1 592.03 145.17
  L 592.99 147.35
  A 1.68 1.68 0.0 0 1 591.45 149.70
  L 584.11 149.72
  Z
  M 583.93 147.83
  L 589.95 147.77
  A 0.19 0.19 0.0 0 0 590.14 147.58
  L 590.13 147.50
  A 3.11 3.07 -0.6 0 0 586.99 144.46
  L 586.81 144.46
  A 3.11 3.07 -0.6 0 0 583.73 147.56
  L 583.74 147.64
  A 0.19 0.19 0.0 0 0 583.93 147.83
  Z"
/>
<rect fill="#fdfdfd" x="618.28" y="142.34" width="3.28" height="13.30" rx="1.49"/>
<path fill="#fdfdfd" d="
  M 641.23 153.48
  C 633.27 160.12 627.85 146.52 634.35 143.05
  Q 637.93 141.14 640.87 143.62
  A 0.56 0.56 0.0 0 0 641.78 143.33
  C 642.19 141.67 644.80 142.02 644.82 143.82
  Q 644.95 151.59 644.72 155.40
  C 644.35 161.38 637.01 161.31 632.99 159.36
  A 1.19 1.19 0.0 0 1 632.41 157.86
  L 632.44 157.80
  A 1.18 1.18 0.0 0 1 633.90 157.12
  C 637.34 158.25 642.03 159.22 641.63 153.65
  A 0.24 0.24 0.0 0 0 641.23 153.48
  Z
  M 638.3773 144.6627
  A 4.02 3.41 -87.9 0 0 634.8223 148.5550
  A 4.02 3.41 -87.9 0 0 638.0827 152.6973
  A 4.02 3.41 -87.9 0 0 641.6377 148.8050
  A 4.02 3.41 -87.9 0 0 638.3773 144.6627
  Z"
/>
<path fill="#fdfdfd" d="
  M 658.49 149.71
  A 0.54 0.53 -9.1 0 0 657.98 150.41
  C 659.13 153.88 662.56 153.74 665.46 152.34
  Q 665.71 152.22 666.07 152.22
  Q 666.43 152.23 666.67 152.41
  A 1.17 1.01 44.5 0 1 666.81 154.15
  Q 664.97 155.49 662.98 155.67
  C 651.21 156.74 652.73 140.11 663.18 142.49
  A 4.65 4.65 0.0 0 1 666.42 145.18
  L 667.37 147.36
  A 1.68 1.68 0.0 0 1 665.84 149.71
  L 658.49 149.71
  Z
  M 658.28 147.84
  L 664.32 147.78
  A 0.18 0.18 0.0 0 0 664.50 147.60
  L 664.50 147.52
  A 3.13 3.08 -0.5 0 0 661.35 144.47
  L 661.21 144.47
  A 3.13 3.08 -0.5 0 0 658.10 147.58
  L 658.10 147.66
  A 0.18 0.18 0.0 0 0 658.28 147.84
  Z"
/>
<path fill="#fdfdfd" d="
  M 680.93 143.72
  C 684.34 140.92 688.60 141.95 689.22 146.32
  Q 689.52 148.45 689.27 154.12
  A 1.60 1.60 0.0 0 1 687.64 155.65
  L 687.53 155.65
  A 1.54 1.54 0.0 0 1 686.00 154.13
  L 685.94 146.93
  A 2.18 2.18 0.0 0 0 683.28 144.83
  L 683.01 144.87
  A 3.06 3.06 0.0 0 0 680.44 147.90
  L 680.45 154.02
  A 1.64 1.64 0.0 0 1 678.80 155.66
  L 678.69 155.66
  A 1.52 1.52 0.0 0 1 677.12 154.14
  L 677.13 143.71
  A 1.34 1.34 0.0 0 1 677.83 142.53
  Q 679.53 141.60 680.21 143.52
  A 0.46 0.45 60.3 0 0 680.93 143.72
  Z"
/>
<path fill="#fdfdfd" d="
  M 720.11 149.71
  A 0.54 0.53 -9.1 0 0 719.60 150.41
  C 720.75 153.88 724.18 153.73 727.07 152.33
  Q 727.32 152.21 727.68 152.21
  Q 728.04 152.22 728.28 152.40
  A 1.17 1.01 44.5 0 1 728.42 154.15
  Q 726.59 155.49 724.60 155.67
  C 712.83 156.74 714.35 140.12 724.79 142.50
  A 4.65 4.65 0.0 0 1 728.04 145.18
  L 728.99 147.36
  A 1.68 1.68 0.0 0 1 727.45 149.71
  L 720.11 149.71
  Z
  M 719.91 147.83
  L 725.95 147.77
  A 0.18 0.18 0.0 0 0 726.13 147.59
  L 726.13 147.49
  A 3.12 3.06 -0.5 0 0 722.99 144.46
  L 722.83 144.46
  A 3.12 3.06 -0.5 0 0 719.73 147.55
  L 719.73 147.65
  A 0.18 0.18 0.0 0 0 719.91 147.83
  Z"
/>
</svg>
